<?xml version="1.0" encoding="UTF-8"?>
<svg xmlns="http://www.w3.org/2000/svg" id="a" width="865.76" height="682.89" viewBox="0 0 865.76 682.89">
  <g>
    <rect x="206.51" y="139.46" width="288.18" height="393.98" fill="#e6e7e8"></rect>
    <path d="M495.2,533.94H206.01V138.95H495.2v394.99Zm-288.18-1.02H494.19V139.97H207.02v392.96Z" fill="#002346"></path>
  </g>
  <g>
    <rect x="226.47" y="158.17" width="244.51" height="233.29" fill="#fff"></rect>
    <path d="M471.48,391.96H225.97V157.67h245.51v234.29Zm-244.51-1h243.51V158.67H226.97v232.29Z" fill="#002346"></path>
  </g>
  <g>
    <path d="M350.6,266.85s20.59-22.6,36.8-26.34l5,8.73v-12s22.74-9.17,48.8-5.42c0,0,2.12,11.51-4,35.07h-7.71l6.91,4.64c.34,8.56-20.85,37.63-26,45.36l-60.63,19.68,.83-69.72Z" fill="#7cd295"></path>
    <path d="M349.27,337.26l.84-70.61,.13-.14c.84-.93,20.88-22.76,37.06-26.49l.36-.08,4.25,7.42v-10.46l.31-.13c.23-.09,23.16-9.18,49.06-5.45l.36,.05,.07,.35c.09,.47,2.07,11.89-4.01,35.29l-.1,.37h-6.46l5.76,3.87v.25c.31,7.47-14.77,29.27-22.87,40.98-1.34,1.93-2.45,3.54-3.21,4.68l-.1,.14-61.46,19.95Zm1.84-70.21l-.82,68.83,59.8-19.41c.76-1.13,1.83-2.69,3.12-4.54,7.38-10.67,22.63-32.73,22.71-40.12l-8.06-5.41h8.96c5.32-20.68,4.22-32.04,3.95-34.13-23.83-3.32-45.05,4.26-47.86,5.32v13.54l-5.75-10.04c-15.16,3.75-34.3,24.08-36.05,25.96Z" fill="#002346"></path>
  </g>
  <path d="M358.68,302.94c-.11,0-.21-.03-.3-.1-.22-.17-.26-.48-.1-.7,30.87-40.61,81.72-70.01,82.23-70.3,.24-.14,.55-.06,.68,.18,.14,.24,.05,.55-.18,.68-.51,.29-51.19,29.6-81.93,70.04-.1,.13-.25,.2-.4,.2Z" fill="#002346"></path>
  <g>
    <path d="M459.2,107.97c111.87,4.53,93.49-21.63,94.75,53.59,.17,8.41-11.56,5.98-16.74,6.29,1.05,3.52,2.94,6.73,5.5,9.36-8.33-.93-12.5-5.24-14.6-9.36-88.44-4.22-74.37,20.72-75.21-53.59,0-3.48,2.82-6.29,6.3-6.29Z" fill="#4942E4"></path>
    <path d="M544.05,177.86l-1.39-.16c-8.64-.96-12.84-5.57-14.86-9.37-22.52-1.06-38.1-.24-49.49,.36-12.98,.68-19.5,1.03-22.95-2.32-3.64-3.53-3.48-11.1-3.17-26.18,.15-6.87,.33-15.42,.21-25.93,0-3.75,3.06-6.8,6.8-6.8h.02c29.52,1.2,50.32,.24,64.08-.4,16.19-.75,24.32-1.12,28.22,2.71,3.72,3.65,3.54,10.79,3.16,25-.19,7.06-.42,15.84-.24,26.77,.04,1.91-.52,3.45-1.65,4.56-2.63,2.59-7.82,2.41-12,2.27-1.05-.04-2.07-.07-2.92-.05,1.05,3.19,2.84,6.13,5.18,8.54l.97,1Zm-37.52-11.04c6.4,0,13.56,.14,21.61,.53h.29s.13,.27,.13,.27c2.51,4.92,6.83,7.91,12.85,8.9-2.13-2.48-3.74-5.4-4.67-8.53l-.18-.6,.63-.04c1.03-.06,2.31-.02,3.66,.03,3.98,.14,8.94,.31,11.26-1.98,.94-.93,1.38-2.18,1.35-3.83-.18-10.95,.05-19.75,.24-26.82,.37-13.92,.55-20.91-2.86-24.26-3.59-3.52-11.57-3.16-27.48-2.42-13.78,.64-34.61,1.59-64.16,.4-3.19,0-5.78,2.6-5.79,5.79,.12,10.52-.06,19.08-.21,25.95-.31,14.79-.47,22.21,2.86,25.44,3.14,3.04,9.51,2.71,22.21,2.04,7.4-.39,16.57-.87,28.27-.87Z" fill="#002346"></path>
  </g>
  <g>
    <path d="M481.94,320.35h-9.17l9.18,4.37c-5.25,25.57-30.91,50.52-30.91,50.52l-13.72-7.48,7.45,11.21c-2.49,6.24-14.4,12.48-14.4,12.48h-56.69c-.35-1.59-17.77-72.06-17.39-71.2,28.66-36.09,48.93-37.7,48.93-37.7l7.76,12.84v-15.56c53-13.06,78-6.88,78-6.88,1.22,29.94-9.04,47.4-9.04,47.4Z" fill="#7cd295"></path>
    <path d="M430.5,391.95h-57.21l-.09-.39c-.11-.51-2.09-8.54-4.59-18.71-2.59-10.55-5.82-23.66-8.38-34.14-1.28-5.24-2.4-9.82-3.19-13.1-.71-2.92-1.05-4.34-1.15-5.05l-.04-.1h.03c-.05-.44,0-.56,.13-.63,28.42-35.73,48.35-37.7,49.19-37.77l.31-.02,6.99,11.57v-14.16l.38-.09c52.51-12.94,77.99-6.94,78.24-6.88l.36,.09,.02,.38c1.21,29.74-9.01,47.5-9.11,47.67l-.14,.25h-7.24l7.53,3.59-.08,.38c-5.22,25.43-30.79,50.53-31.05,50.78l-.26,.26-12.27-6.69,6.48,9.75-.1,.24c-2.53,6.34-14.14,12.48-14.63,12.74l-.11,.06Zm-56.42-1h56.17c1.17-.63,11.5-6.32,13.96-11.93l-8.42-12.67,15.17,8.27c2.7-2.7,25.39-26,30.43-49.62l-10.82-5.15h11.09c1.21-2.22,9.87-19.18,8.85-46.49-3.27-.67-28.42-5.05-77.02,6.87v16.96l-8.52-14.1c-2.61,.39-21.93,4.36-48.14,37.3,.6,2.81,7.88,32.41,12.75,52.22,2.33,9.47,4.08,16.58,4.5,18.34Z" fill="#002346"></path>
  </g>
  <path d="M186.55,234.27s-6.23,34.93,7.49,58.64h18.87l-15.14,6.23s10,29.29,42.41,29.62l-3.12-87.92s-16.82-7.82-50.51-6.57Z" fill="#4942E4"></path>
  <g>
    <path d="M186.55,234.27s-6.23,34.93,7.49,58.64h18.87l-15.14,6.23s10,29.29,42.41,29.62l-3.12-87.92s-16.82-7.82-50.51-6.57Z" fill="#7cd295"></path>
    <path d="M240.7,329.26h-.52c-32.39-.33-42.78-29.67-42.88-29.96l-.15-.44,13.24-5.45h-16.63l-.14-.25c-13.65-23.59-7.61-58.63-7.55-58.98l.07-.4,.4-.02c33.42-1.23,50.57,6.54,50.74,6.62l.28,.13,3.15,88.75Zm-42.29-29.85c1.42,3.62,12.15,28.25,41.25,28.83l-3.09-87.08c-2.31-.98-19.01-7.5-49.59-6.42-.62,3.91-5.16,35.73,7.35,57.65h21.11l-17.03,7.01Z" fill="#002346"></path>
  </g>
  <path d="M183.06,303.97s.53,79.65,61.9,86.05l4.51-51.76-12.44-28.29c-4.77-1.86-9.66-3.41-14.63-4.62l-2.14,7.49-1.36-7.49s-18.13-4-35.84-1.38Z" fill="#4942E4"></path>
  <g>
    <path d="M183.06,303.97s.53,79.65,61.9,86.05l4.51-51.76-12.44-28.29c-4.77-1.86-9.66-3.41-14.63-4.62l-1.85,6.48c-.07,.25-.43,.23-.48-.02l-1.17-6.45s-18.13-4-35.84-1.38Z" fill="#7cd295"></path>
    <path d="M245.42,390.57l-.51-.05c-31.96-3.33-47.21-26.72-54.38-45.75-7.75-20.56-7.97-40.6-7.97-40.8v-.43s.43-.06,.43-.06c17.6-2.6,35.84,1.35,36.02,1.39l.33,.07,1.04,5.71,1.68-5.89,.47,.11c4.98,1.22,9.92,2.78,14.69,4.64l.19,.08,.08,.19,12.49,28.41v.13s-4.56,52.27-4.56,52.27Zm-61.85-86.17c.08,3.03,.85,21.32,7.91,40.04,7.03,18.66,21.94,41.55,53.03,45.03l4.46-51.12-12.31-27.98c-4.52-1.75-9.19-3.24-13.91-4.41l-1.72,6.02c-.1,.33-.41,.53-.75,.54-.35-.02-.63-.27-.7-.61l-1.11-6.12c-2.5-.51-18.91-3.63-34.9-1.37Z" fill="#002346"></path>
  </g>
  <g>
    <path d="M341.05,158.14s19.33,14.45,21.62,30.32c0,0-12-17.54-30.78-12.2l.35-12.43s3.39-1.29,8.81-5.69Z" fill="#002346"></path>
    <path d="M363.48,190.51l-1.21-1.77c-.12-.17-12.03-17.17-30.23-12l-.66,.19,.38-13.44,.31-.12s3.4-1.33,8.67-5.61l.3-.25,.31,.23c.8,.59,19.52,14.76,21.82,30.65l.31,2.13Zm-24.57-15.76c11.64,0,19.86,8.21,22.89,11.79-3.2-13.63-18.38-25.93-20.74-27.77-4.38,3.51-7.38,4.98-8.33,5.39l-.32,11.43c2.27-.58,4.44-.84,6.5-.84Z" fill="#002346"></path>
  </g>
  <g>
    <path d="M661.71,379.97c-.15,28.45-12.11,217.3-12.11,217.3-29.84,2.88-43.94-1.28-66.33,0l-11.26-209.63-.56-10.36,23-40.71,51.15,38.67,16.11,4.73Z" fill="#11009E"></path>
    <path d="M628.52,598.81c-7.02,0-13.19-.34-19.26-.68-8.45-.47-16.44-.91-25.97-.37l-.5,.03-.03-.5-11.83-220.14,.07-.13,23.28-41.21,51.53,38.96,16.38,4.81v.38c-.15,28.14-11.99,215.44-12.11,217.33l-.03,.43-.42,.04c-8.04,.78-14.92,1.04-21.13,1.04Zm-36.25-2.3c5.88,0,11.36,.3,17.05,.62,11.3,.63,22.98,1.27,39.81-.32,.63-10.02,11.84-187.8,12.08-216.47l-15.91-4.71-50.69-38.33-22.65,40.09,.55,10.21,11.23,209.13c2.97-.16,5.79-.23,8.53-.23Z" fill="#002346"></path>
  </g>
  <g>
    <path d="M688.06,310.37h0l-42.4,64.86c-17.83-4.07-36.87-5.96-54.56-.26-12.89,3.88-21,1.65-21.53,1.49h0l-4.98-52.17c0-.08-.1-.1-.14-.03-1.6,2.37-9.88,3.55-9.88,3.55,6.24-27.45-5-43.67-5-43.67,3.52-24.66,6.9-39.44,9.25-47.78,2.12-7.52,6.78-14.08,13.2-18.53,12.06-8.35,26.98-12.67,26.98-12.67l41.1-.88c23.17,8.7,31.82,14.76,31.82,14.76,15.09,9.9,16.13,23.31,16.13,23.31,6.24,44.32,0,68.02,0,68.02Z" fill="#4942E4"></path>
    <path d="M576.67,377.75c-4.48,0-7.05-.75-7.24-.81l-.32-.1-.03-.33-4.89-51.25c-2.48,1.99-8.76,2.94-9.54,3.05l-.72,.1,.16-.71c6.11-26.89-4.81-43.11-4.92-43.27l-.11-.16,.03-.19c3.57-25.05,7.01-39.84,9.26-47.85,2.15-7.63,6.91-14.31,13.4-18.81,11.99-8.3,26.98-12.69,27.13-12.74l.13-.02,41.2-.88,.09,.03c22.96,8.62,31.84,14.76,31.93,14.82,15.11,9.91,16.33,23.54,16.34,23.68,6.18,43.88,.06,67.95,0,68.19l-.06,.15-42.59,65.15-.34-.08c-22.02-5.03-39.27-5.11-54.29-.27-5.97,1.8-10.92,2.3-14.59,2.3Zm-6.63-1.68c1.63,.41,9.25,1.94,20.92-1.58,15.11-4.87,32.44-4.82,54.48,.17l42.16-64.5c.38-1.52,5.94-25.29-.04-67.75-.01-.16-1.21-13.33-15.91-22.96-.1-.07-8.88-6.12-31.63-14.68l-40.94,.88c-1.06,.31-15.31,4.64-26.77,12.58-6.3,4.36-10.92,10.85-13,18.26-2.24,7.95-5.66,22.65-9.21,47.53,1.15,1.8,10.67,17.73,5.13,43.18,2.62-.44,7.73-1.6,8.82-3.22l.2-.29,.42,.05c.24,.06,.4,.26,.43,.5l4.95,51.83Z" fill="#002346"></path>
  </g>
  <g>
    <path d="M623.82,192.02c-3.36,3.2-8.2,5.27-15.11,5.63-.92,.02-1.83,0-2.72-.09-11.21-1.11-20.06-10.59-20.04-22.14-.75-17.97-1.32-39.02,22.23-40.27,12.46-.29,22.79,9.77,22.77,22.24,.53,12.7,.97,26.93-7.13,34.63Z" fill="#f2b3c1"></path>
    <path d="M608.16,198.15c-.76,0-1.5-.03-2.22-.1-11.71-1.16-20.51-10.89-20.5-22.64-.73-17.58-1.65-39.48,22.7-40.77,6.19-.16,12.03,2.16,16.46,6.5,4.42,4.32,6.84,10.09,6.83,16.24,.5,12.01,1.13,26.99-7.29,34.99h0c-3.66,3.48-8.85,5.42-15.43,5.77-.19,0-.38,0-.57,0Zm.55-62.51c-.17,0-.35,0-.52,0-23.35,1.24-22.46,22.59-21.74,39.75-.02,11.25,8.4,20.56,19.59,21.66,.86,.08,1.75,.11,2.66,.09,6.41-.33,11.25-2.13,14.78-5.49h0c8.08-7.69,7.47-22.41,6.97-34.25,0-5.9-2.31-11.42-6.53-15.55-4.11-4.02-9.49-6.22-15.21-6.22Z" fill="#002346"></path>
  </g>
  <g>
    <path d="M637.03,178.13l-3.25,6c.61,14.72-10,5.43-10,5.43,6.83-11,3.7-16,3.7-16-9.42,2.85-5.54-12.84-5.54-12.84-.9-22.1-21.87-1.99-28.51-16.13-4.49-1.44-7.49,11.56-7.49,11.56-6.15-6.18-2.67-24.18-2.67-24.18l5,1.24c-1.25-5,2.49-8.73,2.49-8.73,2.5,6.24,13.72,5,13.72,5,20.94,2.09,48.43-.91,36.18,26.2,13.71,9.98-3.63,22.45-3.63,22.45Z" fill="#002346"></path>
    <path d="M629.91,192.95c-3.37-.12-6.22-2.87-6.77-3.29,5.56-8.47,4.7-14.5,4.08-15.5-8.34,2.84-6.58-11.72-5.77-13.5-.82-21.24-20.92-1.45-28.36-15.65-4.5-.18-6.74,12.22-6.85,12.13-7.08-6.27-3.68-24.35-3.35-25.79l4.74,1.18c-.58-5.59,2.52-7.98,3.32-8.94,1.52,6.33,13.33,5.54,13.48,5.39,18.26,2.4,49.24-2.31,36.87,26.55,11.21,7.25,.8,20.24-3.88,22.94,0,0-3.13,5.78-3.13,5.78,.04,5.37-.7,8.42-4.38,8.7Zm-5.47-3.5c4.65,4.1,9.72,3.32,8.84-5.44l3.46-6.29c4.01-2.39,15.11-14.74,3.28-21.9,13-28.3-17.56-23.4-35.58-25.85-.36,.05-10.68,1.12-13.8-4.59-1.09,1.14-2.97,5.12-1.68,8.5l-5.29-1.31c-.48,2.85-2.52,16.69,2.02,22.52,.95-2.83,3.11-12.33,8.11-10.92,6.32,14.15,27.79-6.38,28.62,16.66-.51,1.02-2.95,15.66,5.28,12.13,.35,.71,3.47,5.21-3.27,16.48Z" fill="#002346"></path>
  </g>
  <g>
    <path d="M625.93,176.36c2.95-9.27,13.8-5.69,10.66,3.51-2.95,9.27-13.8,5.69-10.66-3.51Z" fill="#f2b3c1"></path>
    <path d="M630.27,185.94c-9.42-.31-4.69-18.21,3.49-15.41,6.66,2.13,3.76,15.45-3.49,15.41Zm1.98-14.66c-5.77-.34-8.98,11.72-3.18,13.48,7.28,2.03,10.8-13.15,3.18-13.48Z" fill="#002346"></path>
  </g>
  <g>
    <path d="M628.43,205.94c-.32,10.16-13.82,13.03-13.86,13.03-16.74,.78-11.21-12.4-8.58-21.41,.89,.08,1.8,.11,2.72,.09,6.91-.36,11.75-2.43,15.11-5.63,1.83,4.77,4.38,10.1,4.61,13.92Z" fill="#f2b3c1"></path>
    <path d="M613.16,219.5c-4.42,0-7.41-1.07-9.11-3.26-3.09-3.98-1.04-10.64,.76-16.52,.24-.79,.48-1.56,.7-2.3l.12-.4,.41,.04c.86,.08,1.76,.11,2.66,.09,6.41-.33,11.25-2.13,14.78-5.49l.54-.52,.27,.7c.41,1.06,.85,2.16,1.3,3.25,1.55,3.82,3.16,7.77,3.34,10.81v.05c-.33,10.59-14.22,13.51-14.36,13.51-.48,.02-.96,.03-1.41,.03Zm-6.81-21.41c-.19,.62-.38,1.27-.58,1.92-1.73,5.65-3.7,12.05-.92,15.62,1.63,2.11,4.9,3.05,9.7,2.84,.07-.02,13.06-2.79,13.38-12.52-.18-2.88-1.75-6.74-3.27-10.47-.35-.87-.71-1.74-1.04-2.59-3.62,3.17-8.62,4.94-14.88,5.27-.81,.02-1.61,0-2.38-.06Z" fill="#002346"></path>
  </g>
  <g>
    <path d="M608.22,218.63s-6.89,1.51-8.43,7.96c-.16,.66-1.07,.71-1.28,.07-2.03-6.1-5.53-21.11,6.69-26.6,0,0-1.68,6.38-2,9.26,.04,0-1.68,7.12,5.03,9.31Z" fill="#fff"></path>
    <path d="M599.13,227.61c-.5,0-.94-.31-1.1-.8-2.09-6.3-5.61-21.58,6.96-27.21l.95-.43-.27,1.01c-.02,.06-1.67,6.38-1.99,9.19h0s-.01,.09-.02,.13c-.34,2.03-.55,6.93,4.71,8.65l1.74,.57-1.78,.4c-.07,.01-6.6,1.53-8.05,7.59-.12,.52-.57,.88-1.1,.91-.02,0-.03,0-.05,0Zm5.31-26.63c-10.67,5.65-7.41,19.64-5.46,25.52,.03,.08,.1,.11,.16,.11,.05,0,.14-.02,.17-.14,1.18-4.93,5.27-7.09,7.44-7.91-4.77-2.38-4.33-7.58-4.06-9.23,0,0,0,0,0,0,0,0,0,0,0,0v-.07c.26-2.21,1.26-6.34,1.75-8.28Z" fill="#002346"></path>
  </g>
  <g>
    <path d="M582.63,597.3s-34.41,21.13-24.63,28.86c.45,2.93,58.14,1.74,60.49,2.58,0,0,7.19-1.5,4.7-10.23l-2.75-20.86-37.81-.35Z" fill="#4942E4"></path>
    <path d="M618.46,629.26l-.14-.05c-.77-.26-8.93-.32-17.57-.37-32.09-.2-42.04-.72-43.14-2.36-1.32-1.08-1.94-2.46-1.85-4.09,.56-9.42,25.54-24.87,26.61-25.52l.12-.08h.14s38.25,.36,38.25,.36l2.8,21.29c.84,2.94,.69,5.47-.49,7.44-1.54,2.6-4.29,3.27-4.6,3.34l-.14,.03Zm-59.98-3.25c1.77,1.58,27.1,1.74,42.27,1.83,10.61,.07,16.44,.12,17.74,.38,.51-.14,2.64-.81,3.85-2.85,1.03-1.73,1.15-3.99,.37-6.73l-2.71-20.5-37.23-.35c-1.91,1.19-25.5,16.07-26.01,24.65-.08,1.34,.43,2.43,1.55,3.32l.16,.12,.02,.12Z" fill="#002346"></path>
  </g>
  <g>
    <path d="M556.67,316.52c-.2,3.85-.91,7.66-2.1,11.32-29.94,8.73-42.41-58.64-42.41-58.64-3.75-12.47-13.73-16.23-13.73-16.23-18.98-9.14-9.61-17.95-3.32-21.24,11.84-4.36,29.5,12.47,29.5,12.47,2.2,.74,3.16-2.21,3.57-4.76,5.04-5.55,1.9,15.56,1.42,14.74-2.49,10,0,11.23,0,11.23,18.72,16.87,28.11,23.41,27.07,51.11Z" fill="#f2b3c1"></path>
    <path d="M549.31,329.12c-3.41,0-6.72-.98-9.88-2.93-19.22-11.84-27.42-55.06-27.76-56.9-3.62-12.04-13.32-15.82-13.42-15.85-7.63-3.67-11.52-7.66-11.59-11.88-.09-5.5,6.26-9.25,8.21-10.27,11.74-4.33,28.48,11.05,29.99,12.47,.38,.11,.71,.07,1.01-.11,.8-.48,1.44-2,1.81-4.28l.02-.15,.1-.11c.32-.36,1.3-1.44,2.31-.99,1.35,.6,1.73,3.97,1.11,10.01-.45,4.41-.88,5.84-1.18,6.32-2.24,9.11-.23,10.52-.21,10.54l.09,.06c1.14,1.03,2.25,2.02,3.32,2.98,16.58,14.84,24.9,22.28,23.92,48.52h0c-.2,3.9-.92,7.75-2.12,11.46l-.08,.25-.25,.07c-1.82,.53-3.63,.8-5.4,.8Zm-49.94-97.61c-1.42,0-2.79,.21-4.08,.69-3.69,1.94-7.68,5.43-7.62,9.34,.06,3.81,3.76,7.5,10.98,10.98,.06,.02,10.21,3.98,13.99,16.54,.1,.5,8.47,44.68,27.31,56.28,4.49,2.76,9.27,3.47,14.23,2.09,1.13-3.54,1.8-7.22,1.99-10.93,.96-25.77-7.24-33.11-23.58-47.74-1.06-.95-2.16-1.93-3.29-2.95-.5-.32-2.55-2.28-.19-11.76l.29-1.19,.1,.16c.67-3.11,1.71-12.95,.25-13.98-.19-.13-.6,.09-1.11,.62-.43,2.56-1.19,4.19-2.26,4.83-.58,.35-1.24,.41-1.94,.17l-.19-.11c-.15-.15-13.84-13.05-24.9-13.05Z" fill="#002346"></path>
  </g>
  <g>
    <path d="M332.11,163.6c-1.44,.28-2.99,.46-4.66,.55-5.69,0-10.9-2.12-14.86-5.62-4.69-4.11-7.64-10.15-7.64-16.88-.53-18.44-2.27-41.18,22.5-42.5,12.42,0,22.5,10.08,22.5,22.5,.48,17.2,2.04,38.14-17.84,41.95Z" fill="#f2b3c1"></path>
    <path d="M327.47,164.65c-5.63,0-11.02-2.04-15.21-5.74-4.96-4.35-7.81-10.64-7.81-17.25l-.07-2.21c-.55-17.59-1.23-39.49,23.04-40.79,12.71,0,23.03,10.32,23.03,23l.07,2.28c.52,17.08,1.11,36.44-18.31,40.16-1.44,.28-3.03,.47-4.73,.56h0Zm-.02-65c-23.26,1.24-22.63,21.7-22.07,39.76l.07,2.23c0,6.34,2.72,12.36,7.47,16.52,4.01,3.54,9.17,5.5,14.53,5.5,1.63-.09,3.17-.27,4.57-.54h0c18.58-3.56,18.01-22.47,17.5-39.15l-.07-2.3c0-12.14-9.87-22.01-22-22.01Z" fill="#002346"></path>
  </g>
  <g>
    <path d="M366.2,114.51c-.38,12.35-10.49,21.88-16.22,21-.25-9.03,1.59-11.22-7.49-14.76,0,0-13.45,16.5-37.48,17.19,.49,6.49,.43,14.45,7,20,32,27-60.85,7.26-74.29,80.08-10.92-33.46,17.78-43.27,31.94-56.87,1.27-1.22,2.56-2.42,3.86-3.61,18.57-16.91,11.61-34.34,11.61-34.34-12.48-28.69,6.24-41.16,6.24-41.16,32.43-25,51.06-2.5,51.06-2.5,24.84-7.48,23.77,14.97,23.77,14.97Z" fill="#002346"></path>
    <path d="M237.86,240.05l-.61-1.87c-8.68-26.6,7.34-38.44,21.48-48.89,3.89-2.88,7.56-5.59,10.59-8.5,1.26-1.21,2.56-2.43,3.87-3.62,18.08-16.46,11.55-33.62,11.48-33.79-12.5-28.73,6.24-41.63,6.43-41.76,30.52-23.53,49.26-5.07,51.5-2.65,7.96-2.34,14.12-1.86,18.33,1.42,6.13,4.79,5.8,13.71,5.78,14.14-.26,8.33-4.75,14.95-8.87,18.38-2.78,2.31-5.66,3.45-7.93,3.1l-.41-.06v-.42c-.05-1.5-.04-2.82-.02-3.98,.07-5.68,.09-7.45-6.83-10.2-1.92,2.17-15.15,16.23-37.09,17.07,.03,.41,.06,.82,.08,1.24,.41,6.08,.87,12.98,6.7,17.9,5.15,4.35,7.3,7.68,6.77,10.48-.84,4.4-8.14,6.84-18.23,10.21-21.9,7.31-55,18.37-62.66,59.87l-.36,1.93Zm82.68-149.22c-7.75,0-17.45,2.82-28.86,11.61-.21,.14-18.24,12.62-6.09,40.56,.08,.19,6.88,17.96-11.73,34.91-1.3,1.18-2.59,2.39-3.85,3.6-3.08,2.95-6.77,5.69-10.69,8.58-13.52,10-28.81,21.29-21.71,45.88,8.47-40.48,42.49-51.85,62.94-58.68,9.4-3.14,16.83-5.62,17.57-9.45,.46-2.38-1.65-5.5-6.43-9.53-6.16-5.19-6.63-12.31-7.05-18.59-.04-.59-.08-1.18-.12-1.75l-.04-.52,.52-.02c23.51-.67,36.97-16.84,37.1-17l.23-.28,.34,.13c7.9,3.08,7.87,5.31,7.8,11.28-.01,1.04-.03,2.19,0,3.5,1.92,.12,4.34-.93,6.72-2.92,3.95-3.29,8.26-9.65,8.51-17.64h0c0-.1,.34-8.84-5.4-13.32-3.99-3.11-9.95-3.5-17.73-1.16l-.32,.1-.21-.25c-.12-.14-7.75-9.03-21.51-9.03Z" fill="#002346"></path>
  </g>
  <g>
    <path d="M338.21,195.85c-12.03,13.45-34.14-6.15-36.37-22.15,.96-.13,8.83-5.58,10.75-15.17,3.96,3.5,9.17,5.62,14.86,5.62,1.67-.09,3.22-.27,4.66-.55l.23,11.84c7-.31,12.19,13.14,5.87,20.41Z" fill="#f2b3c1"></path>
    <path d="M328.52,200.84c-1.58,0-3.23-.26-4.94-.78-10.33-3.15-20.72-15.43-22.23-26.29l-.07-.5,.5-.07c1.05-.23,8.49-5.6,10.33-14.77l.17-.85,.65,.58c4.01,3.54,9.17,5.5,14.53,5.5,1.63-.09,3.17-.27,4.57-.54l.58-.11,.23,11.94c2.8,.12,5.43,2.23,7.13,5.75,2.15,4.45,2.56,10.97-1.37,15.49h0c-2.76,3.09-6.18,4.66-10.06,4.66Zm-26.13-26.81c1.66,10.42,11.6,22.06,21.48,25.07,3.86,1.17,9.41,1.51,13.96-3.58,3.63-4.18,3.23-10.24,1.22-14.4-1.62-3.36-4.13-5.29-6.7-5.18l-.51,.02-.23-11.76c-1.28,.22-2.67,.37-4.14,.45h0c-5.35,0-10.48-1.84-14.57-5.2-2,8.31-8.37,13.58-10.5,14.58Z" fill="#002346"></path>
  </g>
  <g>
    <path d="M357.46,325.34l16.22,66.12H245.19c-6.18-49.52,3.63-62.76,18.7-98.58-31.72,12.15-35.82-3.81-26.2-54.89,1.47-15.5,15.92-54.05,64.04-64.39,2.29,16.05,24.38,35.6,36.37,22.15,5.18-5.65,2.52-17.11-3.15-19.82-.52-.25-.41-1.03,.16-1.13,35.57-6.23,37.85,48.77,42.23,80.58l-23.57,17.59s-3.33,19.94,2.57,47.31c.3,1.69,.7,3.34,1.12,5.06Z" fill="#4942E4"></path>
    <path d="M374.32,391.96H244.75l-.05-.44c-5.41-43.4,1.63-59.52,13.3-86.23,1.6-3.66,3.25-7.43,4.98-11.54-11.96,4.43-19.77,4.63-24.52,.67-7.4-6.18-7.75-22.03-1.25-56.53,.79-8.35,5.05-21.79,14.62-34.34,11.78-15.45,29-25.97,49.81-30.44l.52-.11,.08,.53c1.51,10.56,11.6,22.47,21.6,25.49,3.84,1.16,9.38,1.48,13.9-3.6,2.29-2.5,3.17-6.5,2.35-10.72-.76-3.92-2.81-7.11-5.34-8.31-.44-.21-.68-.65-.61-1.14,.07-.49,.42-.85,.9-.94,7.55-1.32,14.1,.04,19.5,4.04,15.31,11.37,18.98,41.67,21.93,66.01,.47,3.88,.91,7.54,1.38,10.95l.04,.29-23.64,17.64c-.32,2.14-2.91,21.4,2.6,46.93,.29,1.63,.66,3.18,1.12,5.05l16.37,66.74Zm-128.69-1h127.41l-16.07-65.5c-.46-1.88-.84-3.45-1.13-5.09-5.85-27.13-2.6-47.28-2.57-47.48l.03-.2,23.5-17.53c-.46-3.34-.89-6.91-1.34-10.68-2.92-24.16-6.56-54.22-21.53-65.33-5.16-3.83-11.46-5.13-18.73-3.86-.02,0-.07,.01-.08,.09,0,.07,.03,.09,.05,.1,2.82,1.34,5.07,4.8,5.89,9.03,.88,4.53-.09,8.86-2.59,11.58-3.86,4.33-9.02,5.68-14.93,3.89-10.16-3.07-20.41-15.01-22.22-25.78-20.62,4.54-37.01,14.62-48.71,29.96-9.44,12.38-13.64,25.62-14.42,33.88-6.34,33.69-6.08,49.79,.91,55.62,4.59,3.83,12.41,3.43,24.62-1.25l1.09-.42-.45,1.08c-1.91,4.53-3.7,8.64-5.44,12.62-11.95,27.36-18.56,42.47-13.28,85.27Z" fill="#002346"></path>
  </g>
  <g>
    <path d="M235.03,289.97s-.25,28.52,9.94,53.78c0,0,2.41-15.4,11.92-33.74,3.14-5.33,5.5-11.09,7-17.09,0,0-20.3,10.32-28.86-2.95Z" fill="#f2b3c1"></path>
    <path d="M245.19,345.62l-.68-1.68c-10.11-25.06-9.98-53.69-9.98-53.97v-1.67s.92,1.4,.92,1.4c8.22,12.74,28.01,2.88,28.21,2.78l.98-.5-.27,1.06c-1.51,6.05-3.89,11.85-7.05,17.22-9.35,18.02-11.83,33.41-11.86,33.56l-.28,1.79Zm-9.64-54.07c.13,6.16,1.15,29.3,9.25,50.41,.93-4.54,4.03-17.49,11.65-32.17,2.95-5.01,5.2-10.37,6.7-15.96-4.04,1.78-19.62,7.73-27.59-2.27Z" fill="#002346"></path>
  </g>
  <g>
    <path d="M238.59,401.26c-4.79-7.55-18.91,1.73-8.78,10.83,0,0,8.77,6.92,8.77,6.92,5.07-4.17,19.31-14.35,7.85-20.02,0-.02-4.99-2.54-7.84,2.27Z" fill="#fff"></path>
    <path d="M238.59,419.65l-.32-.25s-8.66-6.83-8.77-6.92c-4.27-3.83-4-7.31-3.47-9.04,.86-2.77,3.57-4.99,6.6-5.39,2.38-.32,4.51,.52,5.94,2.32,2.26-3.12,5.51-2.66,6.86-2.29,.67,.18,1.03,.33,1.24,.47,2.8,1.39,4.34,3.18,4.57,5.32,.56,5.16-6.7,10.99-11.04,14.46-.48,.39-.92,.74-1.31,1.06l-.31,.26Zm-8.5-7.87c.71,.45,2.62,1.96,8.49,6.58,.31-.25,.65-.52,1.01-.81,4.18-3.35,11.17-8.96,10.67-13.58-.19-1.78-1.55-3.31-4.04-4.54l-.16-.08c-.74-.33-4.66-1.85-7.03,2.15l-.42,.7-.44-.69c-1.19-1.88-3.17-2.79-5.4-2.49-2.66,.35-5.03,2.29-5.78,4.7-.8,2.6,.32,5.43,3.16,7.98l-.06,.06Z" fill="#002346"></path>
  </g>
  <g>
    <path d="M280.12,407.05c-.06-13.87-21.16-13.88-21.22,0-.12,7.09,7.23,12.41,13.92,10.07l6.8,1.89v-8.73h0c.34-1.04,.5-2.13,.5-3.23Z" fill="#fff"></path>
    <path d="M280.12,419.67l-7.29-2.02c-3.26,1.08-6.92,.48-9.82-1.62-2.95-2.13-4.67-5.49-4.61-8.98,.03-7.49,5.78-10.9,11.11-10.9s11.08,3.41,11.11,10.9h0c0,1.13-.16,2.24-.5,3.31v9.31Zm-7.32-3.07l6.32,1.75,.02-8.22c.32-.99,.48-2.03,.48-3.08h0c-.03-6.81-5.26-9.91-10.11-9.91s-10.08,3.1-10.11,9.91c-.05,3.17,1.52,6.22,4.2,8.16,2.68,1.94,6.07,2.47,9.05,1.43l.15-.05Z" fill="#002346"></path>
  </g>
  <g>
    <path d="M313.54,398.32l-.46,.65-13.61,19.14c-.2,.28-.64,.14-.64-.2v-12.73c-.16-.13-6.48-4.56-8.87-6.24-.28-.2-.14-.64,.2-.64,4.72,0,22.68,.02,23.38,.02Z" fill="#fff"></path>
    <path d="M299.19,418.76c-.09,0-.17-.01-.26-.04-.36-.11-.59-.44-.59-.81v-12.47c-.86-.61-4.31-3.04-6.69-4.7l-1.97-1.38c-.31-.21-.44-.6-.32-.95,.11-.36,.44-.59,.81-.59h7.49c6.87,.01,15.41,.02,15.89,.02h.97l-14.63,20.58c-.16,.23-.42,.36-.69,.36Zm-8.55-19.96l1.58,1.11c3.84,2.7,6.79,4.77,6.92,4.87l.19,.15v12.51l13.24-18.62c-2.5,0-9.28,0-14.93-.01h-7.01Z" fill="#002346"></path>
  </g>
  <g>
    <polygon points="455.57 398.3 455.57 419.01 463.5 411.42 470.99 419.01 470.99 398.32 455.57 398.3" fill="#fff"></polygon>
    <path d="M471.49,420.23l-8-8.11-8.42,8.06v-22.38l16.42,.02v22.41Zm-15.42-21.43v19.04l7.44-7.12,6.98,7.07v-18.97l-14.42-.02Z" fill="#002346"></path>
  </g>
  <g>
    <path d="M421.88,53.38h-59c-2.32,0-4.2,1.88-4.2,4.2v31.52c0,2.32,1.88,4.2,4.2,4.2h7c-.7,2.35-1.96,4.49-3.67,6.24,5.56-.62,8.34-3.49,9.74-6.24h45.94c2.32,0,4.2-1.88,4.2-4.2v-31.52c0-2.32-1.89-4.21-4.21-4.2Z" fill="#11009E"></path>
    <path d="M364.88,100.19l.98-1c1.49-1.53,2.64-3.38,3.34-5.39h-6.31c-2.59,0-4.7-2.11-4.7-4.7v-31.52c0-2.59,2.11-4.7,4.7-4.7h59.01c1.25,0,2.43,.49,3.32,1.37,.89,.89,1.38,2.07,1.38,3.33v31.52c0,2.59-2.11,4.7-4.7,4.7h-45.64c-1.38,2.55-4.22,5.59-9.99,6.24l-1.39,.16Zm-1.99-46.31c-2.04,0-3.7,1.66-3.7,3.7v31.52c0,2.04,1.66,3.7,3.7,3.7h7.67l-.19,.64c-.58,1.96-1.56,3.81-2.85,5.4,3.73-.73,6.42-2.66,8-5.76l.14-.27h46.25c2.04,0,3.7-1.66,3.7-3.7v-31.52c0-.99-.39-1.92-1.09-2.62-.7-.7-1.63-1.08-2.61-1.08h-59.01Z" fill="#002346"></path>
  </g>
  <g>
    <path d="M370.56,69.6c4.05-.06,4.05,6.3,0,6.24-4.05,.06-4.05-6.3,0-6.24Z" fill="#fff"></path>
    <path d="M370.56,76.34c-4.7,.07-4.7-7.31,0-7.24,4.7-.07,4.7,7.31,0,7.24Zm0-6.24c-3.4-.05-3.4,5.29,0,5.24,3.4,.05,3.4-5.29,0-5.24Z" fill="#002346"></path>
  </g>
  <g>
    <path d="M391.77,69.6c4.05-.06,4.05,6.3,0,6.24-4.05,.06-4.05-6.3,0-6.24Z" fill="#fff"></path>
    <path d="M391.77,76.34c-4.7,.07-4.7-7.31,0-7.24,4.7-.07,4.7,7.31,0,7.24Zm0-6.24c-3.4-.05-3.4,5.29,0,5.24,3.4,.05,3.4-5.29,0-5.24Z" fill="#002346"></path>
  </g>
  <g>
    <path d="M412.98,69.6c4.05-.06,4.05,6.3,0,6.24-4.05,.06-4.05-6.3,0-6.24Z" fill="#fff"></path>
    <path d="M412.98,76.34c-4.7,.07-4.7-7.31,0-7.24,4.7-.07,4.7,7.31,0,7.24Zm0-6.24c-3.4-.05-3.4,5.29,0,5.24,3.4,.05,3.4-5.29,0-5.24Z" fill="#002346"></path>
  </g>
  <g>
    <path d="M536.17,132.29c6.07-.09,6.07,9.45,0,9.36-6.07,.09-6.07-9.45,0-9.36Z" fill="#002346"></path>
    <path d="M536.17,142.15c-6.72,.09-6.72-10.45,0-10.36,6.72-.09,6.72,10.45,0,10.36Zm0-9.36c-5.42-.08-5.42,8.44,0,8.36,5.42,.08,5.42-8.44,0-8.36Z" fill="#002346"></path>
  </g>
  <g>
    <path d="M507.36,132.29c6.07-.09,6.07,9.45,0,9.36-6.07,.09-6.07-9.45,0-9.36Z" fill="#002346"></path>
    <path d="M507.36,142.15c-6.72,.09-6.72-10.45,0-10.36,6.72-.09,6.72,10.45,0,10.36Zm0-9.36c-5.42-.08-5.42,8.44,0,8.36,5.42,.08,5.42-8.44,0-8.36Z" fill="#002346"></path>
  </g>
  <g>
    <path d="M475.55,132.29c6.07-.09,6.07,9.45,0,9.36-6.07,.09-6.07-9.45,0-9.36Z" fill="#002346"></path>
    <path d="M475.55,142.15c-6.72,.09-6.72-10.45,0-10.36,6.72-.09,6.72,10.45,0,10.36Zm0-9.36c-5.42-.08-5.42,8.44,0,8.36,5.42,.08,5.42-8.44,0-8.36Z" fill="#002346"></path>
  </g>
  <g>
    <path d="M610.36,219.06s10.33,2.74,9.08,12.72c.19,.63,23.57-16.84,20.13-30.84-1.05-4.26-4.93-8.1-14.56-6,5.5,12.23,4.92,22.24-14.65,24.12Z" fill="#fff"></path>
    <path d="M619.18,232.4l-.25-.58v-.11c1.2-9.44-8.6-12.15-8.7-12.17l-2.69-.71,2.77-.27c8.41-.81,13.61-3.11,15.88-7.03,2.18-3.75,1.64-9.11-1.64-16.39l-.25-.56,.6-.13c11.63-2.54,14.47,3.61,15.15,6.37,3.42,13.89-18.33,30.88-20.41,31.45l-.47,.13Zm-6.74-13.08c2.91,1.35,7.99,4.71,7.58,11.6,3.82-2.61,22.08-17.62,19.06-29.86-.74-3.02-3.47-7.71-13.36-5.76,3.19,7.31,3.63,12.79,1.34,16.73-2.25,3.88-7.05,6.28-14.62,7.29Z" fill="#002346"></path>
  </g>
  <g>
    <path d="M645.94,305.59s2.29,44.75-13.35,67.18l18,18.69s33.68-26.2,37.43-81.09c.04,0-6.86,5.41-42.08-4.78Z" fill="#f2b3c1"></path>
    <path d="M650.55,392.13l-18.6-19.31,.24-.34c15.36-22.04,13.28-66.42,13.26-66.87l-.04-.7,.67,.2c34.41,9.96,41.55,4.93,41.62,4.88l.32,.38h0s.5,.03,.5,.03c-3.72,54.48-37.28,81.19-37.62,81.45l-.35,.28Zm-17.31-19.41l17.4,18.06c3.55-2.97,33.07-29.12,36.83-79.58-2.79,1.13-12.67,3.19-40.99-4.94,.2,5.76,1.01,45.58-13.23,66.46Z" fill="#002346"></path>
  </g>
  <g>
    <path d="M644.25,628.53c-27-2.85-91.88,14.63-34.17-31.23,3.55,.05,33.21,.5,35.85,.54l4.71,20.67c1.25,4.36,.08,6.92-1.41,8.39-1.3,1.28-3.16,1.82-4.98,1.63Z" fill="#4942E4"></path>
    <path d="M603.82,630.01c-8.87,0-15.63-1.05-17.13-4.99-1.96-5.12,5.38-14.05,23.07-28.12l.14-.11,7.59,.11c10.05,.15,26.5,.4,28.44,.43h.39s4.8,21.06,4.8,21.06c1.35,4.72-.09,7.42-1.54,8.86-1.36,1.34-3.32,1.99-5.38,1.77-6.54-.69-15.47-.17-24.1,.33-5.72,.33-11.32,.66-16.27,.66Zm6.42-32.21c-16.73,13.31-24.34,22.35-22.62,26.86,2.08,5.45,17.5,4.56,32.4,3.69,8.67-.5,17.64-1.03,24.27-.33h0c1.76,.19,3.43-.36,4.58-1.49,1.83-1.81,2.26-4.46,1.28-7.9l-4.63-20.31c-3.16-.05-18.49-.28-28.04-.42l-7.24-.11Z" fill="#002346"></path>
  </g>
  <g>
    <path d="M385.77,296.97c-1.36,3.52-4.66,5.97-8.43,6.2-16.56-.37-24.06-14.55-25.77-45.2,.15-7.9-4.58-21.12,.89-28.7,4.08-4.78,7.77-11.07,7.25-17.53-.67-3.53-1.82-12.49,5.28-7.41,21.85,14.35-1.37,24.28,7.48,34.93-.04,0,24.73,28.14,13.3,57.71Z" fill="#f2b3c1"></path>
    <path d="M376.12,303.71c-23.13-.22-24.73-35.78-26.64-63.16-2.71-8.35,8.95-16.79,9.81-26.1-.29-5.38-2.38-16.32,6-10.53,1.74,.94,14.8,8.56,7.64,23.09-.22,.08-4.77,7.82,.16,12.14l-.02,.03c3.29,4,23.8,30.49,13.18,57.96-1.56,4.13-5.74,6.75-10.12,6.56Zm-14.61-100.4c-2.35,.37-2,3.64-1.3,8.34,1.9,10.09-12.6,20.24-9.74,28.75,1.87,26.84,3.46,63.53,26.85,62.27,3.54-.19,6.71-2.55,7.99-5.88,10.64-27.64-10.67-54.15-13.2-57.19-5.21-5.22-.1-13.01-.05-13.09,6.57-15.32-5.33-21.09-10.55-23.2Z" fill="#002346"></path>
  </g>
  <g>
    <path d="M306.32,131.98c8.08-.2,8.08,17.66,0,17.46-8.08,.2-8.08-17.66,0-17.46Z" fill="#f2b3c1"></path>
    <path d="M306.46,149.94h-.29c-2.03,0-3.73-1.05-4.9-3.05-2-3.41-2-8.95,0-12.36,1.2-2.04,2.96-3.11,5.06-3.05,2.07-.05,3.85,1.01,5.06,3.05,2,3.41,2,8.95,0,12.36-1.18,2-2.88,3.05-4.92,3.05Zm-.15-1c2.2,.04,3.5-1.36,4.21-2.56,1.81-3.07,1.81-8.27,0-11.34-.7-1.2-1.98-2.62-4.18-2.56h-.02c-2.2-.03-3.48,1.36-4.18,2.56-1.81,3.07-1.81,8.27,0,11.34,.7,1.2,1.95,2.62,4.18,2.56Z" fill="#002346"></path>
  </g>
  <path d="M565.52,302.94c-.28,0-.5-.22-.5-.5v-45.68c0-.28,.22-.5,.5-.5s.5,.22,.5,.5v45.68c0,.28-.22,.5-.5,.5Z" fill="#002346"></path>
  <g>
    <path d="M640.31,256.76s7.06,20.99,5.64,48.83" fill="#4942E4"></path>
    <path d="M646.44,305.62l-1-.05c1.4-27.42-5.54-48.44-5.61-48.65l.95-.32c.07,.21,7.08,21.39,5.66,49.02Z" fill="#002346"></path>
  </g>
  <path d="M609.79,587.31c-.25,0-.47-.19-.5-.44l-17.71-153.38c-3.26-27.44-7.49-32.78-9.73-33.52-1.01-.34-1.69,.35-1.71,.38-.19,.2-.5,.21-.71,.02-.2-.19-.22-.5-.03-.7,.04-.05,1.1-1.19,2.74-.66,4.32,1.39,7.93,13.27,10.43,34.36l17.71,153.38c.03,.27-.17,.52-.44,.55-.02,0-.04,0-.06,0Z" fill="#002346"></path>
  <g>
    <ellipse cx="603.52" cy="145.94" rx="15.5" ry="12" fill="#002346"></ellipse>
    <path d="M603.52,158.44c-8.82,0-16-5.61-16-12.5s7.18-12.5,16-12.5,16,5.61,16,12.5-7.18,12.5-16,12.5Zm0-24c-8.27,0-15,5.16-15,11.5s6.73,11.5,15,11.5,15-5.16,15-11.5-6.73-11.5-15-11.5Z" fill="#002346"></path>
  </g>
  <rect x="609.86" y="219.06" width="1" height="100.26" fill="#002346"></rect>
  <path d="M654.02,395.44c-.13,0-.26-.05-.36-.15l-21.42-22.17c-.19-.2-.19-.52,.01-.71,.2-.19,.52-.19,.71,.01l21.42,22.17c.19,.2,.19,.52-.01,.71-.1,.09-.22,.14-.35,.14Z" fill="#002346"></path>
  <path d="M265.86,290.47c-.12,0-.24-.04-.34-.13-.2-.19-.21-.5-.03-.71,15.02-16.13,14.77-47.75,14.76-48.07,0-.28,.22-.5,.49-.51,.27,0,.5,.22,.51,.49,0,.32,.27,32.34-15.03,48.76-.1,.11-.23,.16-.37,.16Z" fill="#002346"></path>
  <path d="M324.6,206.71c-16.13,0-23.13-12.74-23.2-12.88-.13-.24-.04-.55,.21-.68,.24-.13,.54-.04,.68,.21,.07,.14,7.6,13.8,25.12,12.22,.27-.02,.52,.18,.54,.45,.02,.27-.18,.52-.45,.54-.99,.09-1.96,.13-2.89,.13Z" fill="#002346"></path>
  <path d="M327.44,215.49c-.26,0-.48-.2-.5-.46-.02-.28,.19-.52,.46-.54,6.46-.49,11.04-2.46,13.61-5.86,3.02-3.99,2.15-8.59,2.14-8.64-.05-.27,.12-.54,.39-.59,.26-.06,.53,.12,.59,.39,.04,.21,.97,5.09-2.32,9.44-2.75,3.63-7.57,5.73-14.33,6.25-.01,0-.03,0-.04,0Z" fill="#002346"></path>
  <path d="M355.76,215.49c-.14,0-.27-.06-.37-.17-5.87-6.56-3.46-17.53-3.35-18,.06-.27,.34-.44,.6-.38,.27,.06,.44,.33,.38,.6-.02,.11-2.4,10.94,3.12,17.11,.18,.21,.17,.52-.04,.71-.09,.08-.21,.13-.33,.13Z" fill="#002346"></path>
  <path d="M366.4,362.29c-.16,0-.31-.07-.41-.21-.16-.22-.11-.54,.12-.7l124.09-88.43c.22-.16,.54-.11,.7,.12s.11,.54-.12,.7l-124.09,88.43c-.09,.06-.19,.09-.29,.09Z" fill="#002346"></path>
  <path d="M429.45,317.36c-.07,0-.14-.01-.21-.05-.25-.12-.36-.41-.24-.66,7.27-15.72,3.65-28.22,3.62-28.35-.08-.26,.07-.54,.33-.62,.26-.08,.54,.07,.62,.33,.04,.13,3.76,12.99-3.66,29.05-.08,.18-.27,.29-.45,.29Z" fill="#002346"></path>
  <path d="M461.63,330.38c-.1,0-.2-.03-.28-.09-22.84-15.69-44.14-4.07-44.36-3.95-.25,.14-.55,.05-.68-.19-.14-.24-.05-.55,.19-.68,.22-.12,22.05-12.05,45.41,4,.23,.16,.29,.47,.13,.7-.1,.14-.25,.22-.41,.22Z" fill="#002346"></path>
  <path d="M386.11,348.24c-.09,0-.18-.02-.26-.08-.23-.15-.31-.46-.16-.69,9.82-15.75,3.2-29.55,3.13-29.69-.12-.25-.02-.55,.23-.67,.24-.12,.55-.02,.67,.23,.07,.14,6.94,14.42-3.18,30.66-.1,.15-.26,.24-.42,.24Z" fill="#002346"></path>
  <path d="M411.02,366.44c-.13,0-.26-.05-.35-.15-14.62-14.62-38.18-8.15-38.42-8.09-.27,.07-.54-.08-.62-.34-.08-.27,.08-.54,.34-.62,.24-.07,24.37-6.69,39.4,8.34,.2,.2,.2,.51,0,.71-.1,.1-.23,.15-.35,.15Z" fill="#002346"></path>
  <path d="M401.52,260.14c-.09,0-.17-.02-.25-.07-.24-.14-.32-.45-.17-.68,6.73-11.34,.32-19.29,.04-19.63-.18-.21-.15-.53,.07-.7s.53-.15,.7,.06c.07,.09,7.14,8.82,.05,20.78-.09,.16-.26,.25-.43,.25Z" fill="#002346"></path>
  <path d="M394.16,273.86c-.17,0-.33-.08-.43-.24-.14-.24-.07-.54,.16-.69,.14-.08,13.86-8.38,27.15-1.89,.25,.12,.35,.42,.23,.67-.12,.25-.42,.35-.67,.23-12.78-6.25-26.05,1.76-26.18,1.84-.08,.05-.17,.07-.26,.07Z" fill="#002346"></path>
  <path d="M243.44,359.52c-.1,0-.19-.03-.28-.08-22.86-15.28-60.09-54.72-60.46-55.12-.19-.2-.18-.52,.02-.71,.2-.19,.52-.18,.71,.02,.37,.4,37.52,39.76,60.29,54.97,.23,.15,.29,.46,.14,.69-.1,.14-.25,.22-.42,.22Z" fill="#002346"></path>
  <path d="M221.04,341.56c-.1,0-.2-.03-.29-.09-13-9.04-22.29-.26-22.38-.17-.2,.19-.52,.19-.71,0-.19-.2-.19-.51,0-.71,.1-.1,9.99-9.44,23.65,.07,.23,.16,.28,.47,.12,.7-.1,.14-.25,.21-.41,.21Z" fill="#002346"></path>
  <path d="M232.15,351.06c-.19,0-.38-.11-.46-.3-7.38-16.91-1.85-27.14-1.61-27.57,.13-.24,.44-.33,.68-.19,.24,.13,.33,.44,.19,.68-.06,.1-5.52,10.26,1.65,26.68,.11,.25,0,.55-.26,.66-.07,.03-.13,.04-.2,.04Z" fill="#002346"></path>
  <path d="M243.51,373.11c-.13,0-.25-.05-.35-.14-11.67-11.49-26.61-7.74-26.76-7.7-.27,.07-.54-.09-.61-.36-.07-.27,.09-.54,.36-.61,.16-.04,15.65-3.93,27.72,7.96,.2,.19,.2,.51,0,.71-.1,.1-.23,.15-.36,.15Z" fill="#002346"></path>
  <g>
    <line x1="186.55" y1="234.27" x2="233.11" y2="282.53" fill="#7cd295"></line>
    <rect x="209.33" y="224.87" width="1" height="67.06" transform="translate(-120.59 218.13) rotate(-43.97)" fill="#002346"></rect>
  </g>
  <g>
    <path d="M202.81,281.45s13.45-11.51,27.08-2.26" fill="#7cd295"></path>
    <path d="M203.14,281.83l-.65-.76c.14-.12,13.9-11.65,27.68-2.29l-.56,.83c-13.15-8.92-26.34,2.11-26.47,2.23Z" fill="#002346"></path>
  </g>
  <path d="M298.83,405.68c-.19,0-.38-.11-.46-.3-.11-.25,0-.55,.26-.66l14.25-6.21c.25-.11,.55,0,.66,.26,.11,.25,0,.55-.26,.66l-14.25,6.21c-.07,.03-.13,.04-.2,.04Z" fill="#002346"></path>
  <g>
    <g>
      <path d="M410.32,502.51s-4.87-6.42-11,0c-1.77,2.73-1.66,6.28,.27,8.9,.55,.73,1.2,1.37,1.93,1.92l8.77,6.92,8.28-7.07c1.96-1.62,3.25-3.92,3.62-6.44,.31-2.5-.31-5.31-4.06-6.55,.03,0-4.96-2.49-7.81,2.32Z" fill="#fff"></path>
      <path d="M410.3,520.9l-9.09-7.17c-.76-.57-1.44-1.25-2.02-2.01-2.04-2.78-2.16-6.58-.29-9.47,2.07-2.18,4.19-3.19,6.34-3.07,2.43,.14,4.22,1.68,5.02,2.52,2.98-4.22,7.71-2.12,8.06-1.96,3.29,1.1,4.8,3.55,4.37,7.08-.39,2.66-1.74,5.06-3.8,6.76l-8.59,7.33Zm-5.41-20.74c-1.75,0-3.5,.91-5.22,2.7-1.59,2.47-1.48,5.82,.31,8.26,.52,.68,1.13,1.3,1.83,1.82l8.46,6.67,7.97-6.8c1.88-1.55,3.1-3.73,3.45-6.13,.38-3.04-.88-5.06-3.72-6l-.51-.17,.02-.04c-1.18-.43-4.6-1.28-6.73,2.31l-.38,.64-.45-.59s-1.93-2.49-4.75-2.65c-.09,0-.19,0-.28,0Z" fill="#002346"></path>
    </g>
    <g>
      <rect x="227.29" y="431.58" width="83.58" height="7.49" rx="3" ry="3" fill="#11009E"></rect>
      <path d="M307.87,439.57h-77.58c-1.93,0-3.5-1.57-3.5-3.5v-1.49c0-1.93,1.57-3.5,3.5-3.5h77.58c1.93,0,3.5,1.57,3.5,3.5v1.49c0,1.93-1.57,3.5-3.5,3.5Zm-77.58-7.49c-1.38,0-2.5,1.12-2.5,2.5v1.49c0,1.38,1.12,2.5,2.5,2.5h77.58c1.38,0,2.5-1.12,2.5-2.5v-1.49c0-1.38-1.12-2.5-2.5-2.5h-77.58Z" fill="#002346"></path>
    </g>
    <g>
      <rect x="227.29" y="445.31" width="124.75" height="7.49" rx="3" ry="3" fill="#11009E"></rect>
      <path d="M349.04,453.3h-118.75c-1.93,0-3.5-1.57-3.5-3.5v-1.49c0-1.93,1.57-3.5,3.5-3.5h118.75c1.93,0,3.5,1.57,3.5,3.5v1.49c0,1.93-1.57,3.5-3.5,3.5Zm-118.75-7.49c-1.38,0-2.5,1.12-2.5,2.5v1.49c0,1.38,1.12,2.5,2.5,2.5h118.75c1.38,0,2.5-1.12,2.5-2.5v-1.49c0-1.38-1.12-2.5-2.5-2.5h-118.75Z" fill="#002346"></path>
    </g>
    <g>
      <rect x="227.29" y="475.25" width="180.89" height="7.49" rx="3" ry="3" fill="#11009E"></rect>
      <path d="M405.18,483.24H230.29c-1.93,0-3.5-1.57-3.5-3.5v-1.49c0-1.93,1.57-3.5,3.5-3.5h174.89c1.93,0,3.5,1.57,3.5,3.5v1.49c0,1.93-1.57,3.5-3.5,3.5Zm-174.89-7.49c-1.38,0-2.5,1.12-2.5,2.5v1.49c0,1.38,1.12,2.5,2.5,2.5h174.89c1.38,0,2.5-1.12,2.5-2.5v-1.49c0-1.38-1.12-2.5-2.5-2.5H230.29Z" fill="#002346"></path>
    </g>
    <g>
      <rect x="227.29" y="461.52" width="234.53" height="7.49" rx="3" ry="3" fill="#11009E"></rect>
      <path d="M458.82,469.51H230.29c-1.93,0-3.5-1.57-3.5-3.5v-1.49c0-1.93,1.57-3.5,3.5-3.5h228.53c1.93,0,3.5,1.57,3.5,3.5v1.49c0,1.93-1.57,3.5-3.5,3.5Zm-228.53-7.49c-1.38,0-2.5,1.12-2.5,2.5v1.49c0,1.38,1.12,2.5,2.5,2.5h228.53c1.38,0,2.5-1.12,2.5-2.5v-1.49c0-1.38-1.12-2.5-2.5-2.5H230.29Z" fill="#002346"></path>
    </g>
    <g>
      <polygon points="235.71 520.26 243.79 520.26 243.79 511.72 249.3 511.72 249.3 520.26 256.75 520.26 256.75 509.9 247.16 499.55 235.71 509.9 235.71 520.26" fill="#fff"></polygon>
      <path d="M257.25,520.76h-8.45v-8.54h-4.51v8.54h-9.08v-11.08l11.98-10.83,10.06,10.86v11.06Zm-7.45-1h6.45v-9.66l-9.12-9.84-10.92,9.87v9.64h7.08v-8.54h6.51v8.54Z" fill="#002346"></path>
    </g>
    <path d="M311.32,519.82l-4.87-4.87c3.68-4.12,3.32-10.44-.81-14.12-4.12-3.68-10.44-3.32-14.12,.81-3.68,4.12-3.32,10.44,.81,14.12,3.76,3.36,9.43,3.39,13.23,.07l4.88,4.87c.24,.24,.64,.24,.88,0,.24-.24,.24-.64,0-.88Zm-21-11.51c-.02-4.83,3.88-8.75,8.71-8.77,4.83-.02,8.75,3.88,8.77,8.71,0,2.29-.88,4.49-2.48,6.13-.06,.03-.12,.07-.17,.12-.04,.04-.07,.09-.09,.14-3.49,3.32-9.01,3.18-12.33-.31-1.54-1.62-2.4-3.78-2.4-6.02h0Z" fill="#002346"></path>
    <g>
      <rect x="343.31" y="498.95" width="21.21" height="21.21" rx="3.95" ry="3.95" fill="#fff"></rect>
      <path d="M360.57,520.66h-13.31c-2.45,0-4.45-2-4.45-4.45v-13.31c0-2.45,2-4.45,4.45-4.45h13.31c2.45,0,4.45,2,4.45,4.45v13.31c0,2.45-2,4.45-4.45,4.45Zm-13.31-21.21c-1.9,0-3.45,1.55-3.45,3.45v13.31c0,1.9,1.55,3.45,3.45,3.45h13.31c1.9,0,3.45-1.55,3.45-3.45v-13.31c0-1.9-1.55-3.45-3.45-3.45h-13.31Z" fill="#002346"></path>
    </g>
    <polygon points="358.26 508.93 354.55 508.93 354.55 504.89 353.3 504.89 353.3 508.93 349.56 508.93 349.56 510.18 353.3 510.18 353.3 514.22 354.55 514.22 354.55 510.18 358.26 510.18 358.26 508.93" fill="#002346"></polygon>
    <path d="M461.2,512.05c-4.14,0-7.49-3.35-7.49-7.49,0-4.14,3.35-7.49,7.49-7.49,4.14,0,7.49,3.35,7.49,7.49h0c0,4.13-3.36,7.48-7.49,7.49Zm0-13.72c-3.45,0-6.24,2.79-6.24,6.24s2.79,6.24,6.24,6.24,6.24-2.79,6.24-6.24h0c0-3.45-2.8-6.24-6.24-6.24Z" fill="#002346"></path>
    <path d="M473.68,520.16h-1.25v-.68c0-2.91-2.36-5.27-5.27-5.28h-12.43c-2.91,0-5.27,2.37-5.27,5.28v.68h-1.25v-.68c0-3.6,2.92-6.51,6.52-6.52h12.43c3.6,0,6.52,2.92,6.52,6.52v.68Z" fill="#002346"></path>
  </g>
</svg>
